<svg id="google" xmlns="http://www.w3.org/2000/svg" width="34.969" height="35.229" viewBox="0 0 34.969 35.229">
  <path id="Caminho_44832" data-name="Caminho 44832" d="M282.535,211.48H268.271a1.145,1.145,0,0,0-1.14,1.149v4.59a1.145,1.145,0,0,0,1.14,1.149H276.3a10.781,10.781,0,0,1-4.616,5.449l3.425,5.973a17.294,17.294,0,0,0,8.742-15.1,11.726,11.726,0,0,0-.2-2.256A1.148,1.148,0,0,0,282.535,211.48Z" transform="translate(-248.886 -196.928)" fill="#167ee6"/>
  <path id="Caminho_44833" data-name="Caminho 44833" d="M49.545,339.212a10.627,10.627,0,0,1-9.205-5.365l-5.929,3.443a17.391,17.391,0,0,0,23.876,6.456v-.008l-3.425-5.973A10.5,10.5,0,0,1,49.545,339.212Z" transform="translate(-32.061 -310.876)" fill="#12b347"/>
  <path id="Caminho_44834" data-name="Caminho 44834" d="M264.742,396.76v-.008l-3.425-5.973A10.5,10.5,0,0,1,256,392.227v6.893A17.356,17.356,0,0,0,264.742,396.76Z" transform="translate(-238.516 -363.891)" fill="#0f993e"/>
  <path id="Caminho_44835" data-name="Caminho 44835" d="M6.842,136.918a10.7,10.7,0,0,1,1.437-5.356L2.35,128.119a17.646,17.646,0,0,0,0,17.6l5.929-3.443A10.7,10.7,0,0,1,6.842,136.918Z" transform="translate(0 -119.304)" fill="#ffd500"/>
  <path id="Caminho_44836" data-name="Caminho 44836" d="M49.545,6.893A10.546,10.546,0,0,1,56.3,9.336a1.13,1.13,0,0,0,1.529-.069l3.228-3.252a1.163,1.163,0,0,0-.066-1.693A17.369,17.369,0,0,0,34.411,8.815l5.929,3.443A10.627,10.627,0,0,1,49.545,6.893Z" transform="translate(-32.061)" fill="#ff4b26"/>
  <path id="Caminho_44837" data-name="Caminho 44837" d="M262.757,9.336a1.13,1.13,0,0,0,1.529-.069l3.228-3.252a1.163,1.163,0,0,0-.066-1.693A17.357,17.357,0,0,0,256,0V6.893A10.546,10.546,0,0,1,262.757,9.336Z" transform="translate(-238.516)" fill="#d93f21"/>
</svg>
