<svg id="facebook_1_" data-name="facebook (1)" xmlns="http://www.w3.org/2000/svg" width="36.756" height="35.438" viewBox="0 0 36.756 35.438">
  <path id="Caminho_44827" data-name="Caminho 44827" d="M36.756,17.719c0,9.786-8.228,17.719-18.378,17.719S0,27.5,0,17.719,8.228,0,18.378,0,36.756,7.933,36.756,17.719Zm0,0" fill="#4a7aff"/>
  <path id="Caminho_44828" data-name="Caminho 44828" d="M153.09,105.519c9.776-.407,17.571-8.176,17.571-17.7,0-.069,0-.138,0-.207L157.9,75.313l-13.64,13.745,7.578,7.307-3.494,4.581Zm0,0" transform="translate(-133.906 -70.1)" fill="#0053bf"/>
  <path id="Caminho_44829" data-name="Caminho 44829" d="M157.9,71.422v4.012s-4.778-.669-4.778,2.3v2.972h4.315l-.539,4.532H153.12V97.055h-4.778V85.241l-4.084-.074V80.709h4.007V77.291a5.846,5.846,0,0,1,4.932-6.018A14.389,14.389,0,0,1,157.9,71.422Zm0,0" transform="translate(-133.902 -66.209)" fill="#fff"/>
  <path id="Caminho_44830" data-name="Caminho 44830" d="M261.289,75.434V71.422a14.389,14.389,0,0,0-4.7-.148,7.5,7.5,0,0,0-.943.232v25.55h.866V85.241h3.776l.54-4.532h-4.316V77.737C256.511,74.765,261.289,75.434,261.289,75.434Zm0,0" transform="translate(-237.292 -66.209)" fill="#dce1eb"/>
</svg>
